<svg xmlns="http://www.w3.org/2000/svg" viewBox="0 0 64 80" x="0px" y="0px"><path d="M9,30H6a1,1,0,0,0-1,1V49.944A12.069,12.069,0,0,0,17.056,62H46.944A12.069,12.069,0,0,0,59,49.944V31a1,1,0,0,0-1-1H55V20a1,1,0,0,0-1-1H50a9.012,9.012,0,0,0-8.05-8.95A9.012,9.012,0,0,0,33,2H29a1,1,0,0,0-1,1V5a6.006,6.006,0,0,1-6,6,8.009,8.009,0,0,0-8,8H10a1,1,0,0,0-1,1ZM57,49.944A9.99,9.99,0,0,1,54.953,56H13v2H52.937a9.99,9.99,0,0,1-5.993,2H17.056A10.067,10.067,0,0,1,7,49.944V32H57ZM11,30V28.893L53,24.12V26H46v2h7v2ZM22,13a8.009,8.009,0,0,0,8-8V4h3a7.008,7.008,0,0,1,7,7,1,1,0,0,0,1,1,7.008,7.008,0,0,1,7,7H42.908a6.008,6.008,0,0,0-5-4.931A5.008,5.008,0,0,0,33,10v2a3,3,0,0,1,3,3,1,1,0,0,0,1,1,4,4,0,0,1,3.858,3H16A6.006,6.006,0,0,1,22,13Zm31,8v1.107L11,26.88V25h7V23H11V21Z"/></svg>